<?xml version="1.0" encoding="UTF-8"?>
<svg id="Layer_2" data-name="Layer 2" xmlns="http://www.w3.org/2000/svg" viewBox="0 0 127.09 127.41">
  <defs>
    <style>
      .cls-1 {
        fill: #fed700;
      }
    </style>
  </defs>
  <g id="Layer_1-2" data-name="Layer 1">
    <g>
      <path class="cls-1" d="M43.68.6C59.18,0,92.55-1.4,105.99,4.27c17.58,7.41,20.22,23.59,20.8,40.72.4,11.85.39,25.19,0,37.05-1.06,32.91-12.06,43.91-44.95,44.97-14.38.46-32.29.77-46.47-.46C8.12,124.2,1.14,107.11.31,82.47-.1,70.49-.1,56.96.31,44.99,1.38,13.28,11.69,1.84,43.68.6ZM48.84,11.79c-20.18.59-35.47,1.51-36.92,25.89-.98,16.43-.98,35.67,0,52.1,1.48,24.93,18.08,25.51,38.49,26.04,12.57.33,26.69.33,39.18-.43,25.14-1.54,25.51-18.36,26.03-38.94.31-12.44.33-26.41-.43-38.77-1-16.38-9.19-24.63-25.59-25.6-13.14-.78-27.54-.67-40.75-.29Z"/>
      <path class="cls-1" d="M95.97,63.72c0,17.91-14.51,32.43-32.42,32.43s-32.42-14.52-32.42-32.43,14.51-32.43,32.42-32.43,32.42,14.52,32.42,32.43ZM84.67,63.72c0-11.67-9.46-21.14-21.13-21.14s-21.13,9.46-21.13,21.14,9.46,21.14,21.13,21.14,21.13-9.46,21.13-21.14Z"/>
      <circle class="cls-1" cx="97.29" cy="29.96" r="7.55"/>
    </g>
  </g>
</svg>