<?xml version="1.0" encoding="UTF-8"?>
<svg id="Layer_2" data-name="Layer 2" xmlns="http://www.w3.org/2000/svg" viewBox="0 0 127.31 127.2">
  <defs>
    <style>
      .cls-1 {
        fill: #fed700;
      }
    </style>
  </defs>
  <g id="Layer_1-2" data-name="Layer 1">
    <g>
      <path class="cls-1" d="M45.81.36c16.08-.47,33.6-.6,49.59.35,19.95,1.18,29.92,11.22,31.14,31.15.92,15.04.9,32.03.53,47.17-.63,25.05-1.08,45.5-31.67,47.38-15.2.93-32.37.92-47.67.53-24.84-.65-45.04-1.35-46.84-31.68-1.19-19.99-1.19-43.41,0-63.4C2.65,2.2,21.26,1.08,45.81.36ZM113.95,22.48c0-5.08-4.11-9.19-9.19-9.19s-9.19,4.12-9.19,9.19,4.11,9.19,9.19,9.19,9.19-4.12,9.19-9.19ZM103.16,63.56c0-21.79-17.66-39.46-39.45-39.46S24.27,41.76,24.27,63.56s17.66,39.46,39.45,39.46,39.45-17.67,39.45-39.46Z"/>
      <ellipse class="cls-1" cx="63.71" cy="63.55" rx="25.71" ry="25.72"/>
    </g>
  </g>
</svg>