<?xml version="1.0" encoding="UTF-8"?>
<svg id="Layer_2" data-name="Layer 2" xmlns="http://www.w3.org/2000/svg" viewBox="0 0 175.58 199.76">
  <defs>
    <style>
      .cls-1 {
        fill: #fed700;
      }
    </style>
  </defs>
  <g id="Layer_1-2" data-name="Layer 1">
    <path class="cls-1" d="M124.84,0c.36,26.18,20.2,47.55,46.25,49.95,1.49.14,3.41-.49,4.48.59v31.61c0,1.08-2.39.21-2.93.2-4.67-.15-8.52-.42-13.14-1.3-12.73-2.41-24.24-7.93-34.66-15.49l.38,74.34c-1.33,30.86-25.01,56.03-55.65,59.47C30.37,203.76-3.9,170.85.36,131.32c3.78-35.05,37.04-60.05,71.8-54.44v32.59l-.81.43c-25.98-8.17-48.39,20.76-33.46,43.98s51.53,14.3,54.18-13.18c1.03-46.13-1.42-92.47-.03-138.57.02-.74-.04-1.48.41-2.13h32.39Z"/>
  </g>
</svg>