<?xml version="1.0" encoding="UTF-8"?>
<svg id="Layer_2" data-name="Layer 2" xmlns="http://www.w3.org/2000/svg" viewBox="0 0 136.32 99.76">
  <defs>
    <style>
      .cls-1 {
        fill: #fed700;
      }
    </style>
  </defs>
  <g id="Layer_1-2" data-name="Layer 1">
    <path class="cls-1" d="M48.88.53c19.45-.77,45.69-1.12,64.72,2.03,16.4,2.71,19.76,12.07,21.54,26.9,1.58,13.12,1.55,27.22,0,40.33-2.2,18.63-6.61,25.78-26.28,28.02-18.28,2.08-40.12,2.29-58.56,1.62-9.25-.33-27.76-1.03-35.73-4.72-11.31-5.24-12.19-14.17-13.47-25.39C-.59,54.42-.44,36.84,2.31,22.09,3.96,13.25,7.11,8.17,15.72,4.62,23.63,1.35,39.92.88,48.88.53ZM51.65,23.8v52.18l42.58-26.35-42.58-25.83Z"/>
  </g>
</svg>